<mxfile host="Electron" agent="Mozilla/5.0 (Windows NT 10.0; Win64; x64) AppleWebKit/537.36 (KHTML, like Gecko) draw.io/26.0.16 Chrome/132.0.6834.196 Electron/34.2.0 Safari/537.36" version="26.0.16">
  <diagram name="페이지-1" id="mqGOD9rJ3EhFTTc9ieh2">
    <mxGraphModel dx="733" dy="536" grid="1" gridSize="10" guides="1" tooltips="1" connect="1" arrows="1" fold="1" page="1" pageScale="1" pageWidth="827" pageHeight="1169" math="0" shadow="0">
      <root>
        <mxCell id="0" />
        <mxCell id="1" parent="0" />
        <mxCell id="pvpn3ktaHCZhbTc-D2ru-1" value="IDLE" style="ellipse;whiteSpace=wrap;html=1;" vertex="1" parent="1">
          <mxGeometry x="160" y="240" width="120" height="80" as="geometry" />
        </mxCell>
        <mxCell id="pvpn3ktaHCZhbTc-D2ru-2" value="START&lt;div&gt;&lt;br&gt;&lt;/div&gt;&lt;div&gt;RX_DONE 0&lt;/div&gt;" style="ellipse;whiteSpace=wrap;html=1;" vertex="1" parent="1">
          <mxGeometry x="440" y="240" width="120" height="80" as="geometry" />
        </mxCell>
        <mxCell id="pvpn3ktaHCZhbTc-D2ru-3" value="DATA" style="ellipse;whiteSpace=wrap;html=1;" vertex="1" parent="1">
          <mxGeometry x="440" y="400" width="120" height="80" as="geometry" />
        </mxCell>
        <mxCell id="pvpn3ktaHCZhbTc-D2ru-4" value="STOP" style="ellipse;whiteSpace=wrap;html=1;" vertex="1" parent="1">
          <mxGeometry x="160" y="400" width="120" height="80" as="geometry" />
        </mxCell>
        <mxCell id="pvpn3ktaHCZhbTc-D2ru-5" value="" style="endArrow=classic;html=1;rounded=0;exitX=1;exitY=0.5;exitDx=0;exitDy=0;entryX=0;entryY=0.5;entryDx=0;entryDy=0;" edge="1" parent="1" source="pvpn3ktaHCZhbTc-D2ru-1" target="pvpn3ktaHCZhbTc-D2ru-2">
          <mxGeometry width="50" height="50" relative="1" as="geometry">
            <mxPoint x="390" y="360" as="sourcePoint" />
            <mxPoint x="440" y="310" as="targetPoint" />
          </mxGeometry>
        </mxCell>
        <mxCell id="pvpn3ktaHCZhbTc-D2ru-6" value="RX = 0" style="edgeLabel;html=1;align=center;verticalAlign=middle;resizable=0;points=[];" vertex="1" connectable="0" parent="pvpn3ktaHCZhbTc-D2ru-5">
          <mxGeometry x="0.15" y="3" relative="1" as="geometry">
            <mxPoint x="-6" y="-7" as="offset" />
          </mxGeometry>
        </mxCell>
        <mxCell id="pvpn3ktaHCZhbTc-D2ru-7" value="" style="endArrow=classic;html=1;rounded=0;exitX=0.5;exitY=1;exitDx=0;exitDy=0;entryX=0.5;entryY=0;entryDx=0;entryDy=0;" edge="1" parent="1" source="pvpn3ktaHCZhbTc-D2ru-2" target="pvpn3ktaHCZhbTc-D2ru-3">
          <mxGeometry width="50" height="50" relative="1" as="geometry">
            <mxPoint x="390" y="360" as="sourcePoint" />
            <mxPoint x="440" y="310" as="targetPoint" />
          </mxGeometry>
        </mxCell>
        <mxCell id="pvpn3ktaHCZhbTc-D2ru-8" value="TICK_COUNT = 7" style="edgeLabel;html=1;align=center;verticalAlign=middle;resizable=0;points=[];" vertex="1" connectable="0" parent="pvpn3ktaHCZhbTc-D2ru-7">
          <mxGeometry x="-0.15" y="3" relative="1" as="geometry">
            <mxPoint as="offset" />
          </mxGeometry>
        </mxCell>
        <mxCell id="pvpn3ktaHCZhbTc-D2ru-9" value="" style="curved=1;endArrow=classic;html=1;rounded=0;exitX=0.5;exitY=0;exitDx=0;exitDy=0;entryX=1;entryY=0.5;entryDx=0;entryDy=0;" edge="1" parent="1" source="pvpn3ktaHCZhbTc-D2ru-2" target="pvpn3ktaHCZhbTc-D2ru-2">
          <mxGeometry width="50" height="50" relative="1" as="geometry">
            <mxPoint x="460" y="210" as="sourcePoint" />
            <mxPoint x="510" y="160" as="targetPoint" />
            <Array as="points">
              <mxPoint x="500" y="200" />
              <mxPoint x="600" y="200" />
              <mxPoint x="600" y="280" />
            </Array>
          </mxGeometry>
        </mxCell>
        <mxCell id="pvpn3ktaHCZhbTc-D2ru-11" value="tick = 1 -&amp;gt; tick_count 증가" style="edgeLabel;html=1;align=center;verticalAlign=middle;resizable=0;points=[];" vertex="1" connectable="0" parent="pvpn3ktaHCZhbTc-D2ru-9">
          <mxGeometry x="0.2551" y="-5" relative="1" as="geometry">
            <mxPoint x="15" y="-43" as="offset" />
          </mxGeometry>
        </mxCell>
        <mxCell id="pvpn3ktaHCZhbTc-D2ru-14" value="" style="endArrow=classic;html=1;rounded=0;exitX=0;exitY=0.5;exitDx=0;exitDy=0;entryX=1;entryY=0.5;entryDx=0;entryDy=0;" edge="1" parent="1" source="pvpn3ktaHCZhbTc-D2ru-3" target="pvpn3ktaHCZhbTc-D2ru-4">
          <mxGeometry width="50" height="50" relative="1" as="geometry">
            <mxPoint x="389" y="550" as="sourcePoint" />
            <mxPoint x="439" y="500" as="targetPoint" />
          </mxGeometry>
        </mxCell>
        <mxCell id="pvpn3ktaHCZhbTc-D2ru-15" value="tick_count =15&amp;nbsp;&lt;div&gt;가 되면 rx에서 1비트를 읽어 rx_data에 저장&amp;nbsp;&lt;/div&gt;&lt;div&gt;총 8개 비트 수신 후 stop 상태 전이&lt;/div&gt;" style="edgeLabel;html=1;align=center;verticalAlign=middle;resizable=0;points=[];" vertex="1" connectable="0" parent="pvpn3ktaHCZhbTc-D2ru-14">
          <mxGeometry x="-0.2167" y="1" relative="1" as="geometry">
            <mxPoint x="3" y="59" as="offset" />
          </mxGeometry>
        </mxCell>
        <mxCell id="pvpn3ktaHCZhbTc-D2ru-17" value="" style="endArrow=classic;html=1;rounded=0;exitX=0.5;exitY=0;exitDx=0;exitDy=0;" edge="1" parent="1" source="pvpn3ktaHCZhbTc-D2ru-4" target="pvpn3ktaHCZhbTc-D2ru-1">
          <mxGeometry width="50" height="50" relative="1" as="geometry">
            <mxPoint x="420" y="380" as="sourcePoint" />
            <mxPoint x="470" y="330" as="targetPoint" />
          </mxGeometry>
        </mxCell>
        <mxCell id="pvpn3ktaHCZhbTc-D2ru-19" value="stop 비트 확인후 rx_done을 1로 이후 idle 상태로" style="edgeLabel;html=1;align=center;verticalAlign=middle;resizable=0;points=[];" vertex="1" connectable="0" parent="pvpn3ktaHCZhbTc-D2ru-17">
          <mxGeometry x="0.1292" y="-3" relative="1" as="geometry">
            <mxPoint as="offset" />
          </mxGeometry>
        </mxCell>
        <mxCell id="pvpn3ktaHCZhbTc-D2ru-18" value="데이터 수신 시작" style="text;html=1;align=center;verticalAlign=middle;whiteSpace=wrap;rounded=0;" vertex="1" parent="1">
          <mxGeometry x="570" y="425" width="100" height="30" as="geometry" />
        </mxCell>
      </root>
    </mxGraphModel>
  </diagram>
</mxfile>
